<svg viewBox="0 0 500 500" xmlns="http://www.w3.org/2000/svg" xmlns:xlink="http://www.w3.org/1999/xlink" width="500.000000" height="500.000000" fill="none" customFrame="#000000">
	<defs>
		<radialGradient id="paint_radial_0" cx="0" cy="0" r="1" gradientUnits="userSpaceOnUse" gradientTransform="matrix(672.769,0,0,250,250,250)">
			<stop stop-color="rgb(196,196,196)" offset="0.729957819" stop-opacity="0" />
			<stop stop-color="rgb(0,255,81)" offset="0.995780587" stop-opacity="1" />
		</radialGradient>
	</defs>
	<g id="Группа 1">
		<circle id="Эллипс 2" cx="250" cy="250" r="250" fill="rgb(30,41,57)" />
		<circle id="Эллипс 1" cx="250" cy="250" r="250" fill="url(#paint_radial_0)" />
		<path id="" d="M205.703 104.102L227.992 104.102L227.992 160.984L286 104.102L314.547 104.102L260.406 156.555L314.547 214L284.875 214L244.375 172.094L227.992 187.914L227.992 214L205.703 214L205.703 104.102ZM117.668 284.102L157.957 284.102C169.723 284.102 179.941 285.367 188.613 287.898C197.285 290.43 204.469 294.051 210.164 298.762C215.859 303.473 220.102 309.191 222.891 315.918C225.68 322.645 227.074 330.203 227.074 338.594C227.074 346.562 225.691 353.934 222.926 360.707C220.16 367.48 215.941 373.34 210.27 378.285C204.598 383.23 197.426 387.098 188.754 389.887C180.082 392.676 169.863 394.07 158.098 394.07L117.668 394L117.668 284.102ZM163.441 374.734C170.098 374.734 175.934 373.879 180.949 372.168C185.965 370.457 190.148 368.031 193.5 364.891C196.852 361.75 199.371 357.953 201.059 353.5C202.746 349.047 203.59 344.078 203.59 338.594C203.59 333.203 202.746 328.34 201.059 324.004C199.371 319.668 196.852 315.988 193.5 312.965C190.148 309.941 185.965 307.609 180.949 305.969C175.934 304.328 170.098 303.508 163.441 303.508L139.957 303.508L139.957 374.734L163.441 374.734ZM281.434 284.102L340.145 284.102C347.316 284.102 353.562 284.863 358.883 286.387C364.203 287.91 368.621 290.008 372.137 292.68C375.652 295.352 378.266 298.527 379.977 302.207C381.688 305.887 382.543 309.859 382.543 314.125C382.543 321.109 380.34 327.227 375.934 332.477C380.996 335.477 384.77 339.367 387.254 344.148C389.738 348.93 390.98 354.367 390.98 360.461C390.98 365.57 390.125 370.188 388.414 374.312C386.703 378.438 384.102 381.965 380.609 384.895C377.117 387.824 372.711 390.074 367.391 391.645C362.07 393.215 355.801 394 348.582 394L281.434 394L281.434 284.102ZM348.723 326.289C350.645 326.289 352.52 326.359 354.348 326.5C357.488 323.5 359.059 320.078 359.059 316.234C359.059 312.25 357.5 309.168 354.383 306.988C351.266 304.809 346.707 303.719 340.707 303.719L303.723 303.719L303.723 326.289L348.723 326.289ZM349.145 374.594C355.145 374.594 359.703 373.305 362.82 370.727C365.938 368.148 367.496 364.516 367.496 359.828C367.496 355.141 365.938 351.484 362.82 348.859C359.703 346.234 355.145 344.922 349.145 344.922L303.723 344.922L303.723 374.594L349.145 374.594Z" fill="rgb(42,255,109)" fill-rule="nonzero" />
		<path id="Прямоугольник 1" d="M394 243C394 251.837 386.837 259 378 259L106 259C106 250.163 113.163 243 122 243L394 243Z" fill="rgb(42,255,109)" fill-rule="evenodd" />
	</g>
</svg>
